<?xml version="1.0" encoding="UTF-8" standalone="no"?>
<!DOCTYPE svg PUBLIC "-//W3C//DTD SVG 1.1//EN" "http://www.w3.org/Graphics/SVG/1.1/DTD/svg11.dtd">
<svg xmlns="http://www.w3.org/2000/svg" xmlns:xlink="http://www.w3.org/1999/xlink" version="1.1" width="121.89pt" height="121.89pt" viewBox="0 0 121.89 121.89">
<g enable-background="new">
<g id="Layer-1" data-name="Artifact">
<clipPath id="cp8">
<path transform="matrix(1,0,0,-1,0,121.89)" d="M 0 0 L 121.89 0 L 121.89 121.89 L 0 121.89 Z "/>
</clipPath>
<g clip-path="url(#cp8)">
<path transform="matrix(1,0,0,-1,121.8882,60.9436)" d="M 0 0 L 0 60.944 L -61.98 60.944 L -61.98 60.917 C -95.156 60.364 -121.888 33.314 -121.888 -.004 C -121.888 -33.663 -94.6 -60.947 -60.947 -60.947 C -27.393 -60.947 -.175 -33.83 -.007 -.314 L 0 -.314 L 0 -.06 C 0 -.042 .002 -.023 .002 -.004 C .002 -.004 0 -.002 0 0 " fill="#ee2c24"/>
</g>
<path transform="matrix(1,0,0,-1,26.7806,76.1965)" d="M 0 0 L -15.5 15.253 L 0 30.502 L -7.331 30.502 L -22.872 15.253 L -7.348 0 Z " fill="#ffffff"/>
<path transform="matrix(1,0,0,-1,95.1091,45.6942)" d="M 0 0 L 15.5 -15.253 L 0 -30.502 L 7.331 -30.502 L 22.872 -15.253 L 7.348 0 Z " fill="#ffffff"/>
</g>
<g id="Layer-1" data-name="Artifact">
<clipPath id="cp9">
<path transform="matrix(1,0,0,-1,0,121.89)" d="M 0 0 L 121.89 0 L 121.89 121.89 L 0 121.89 Z "/>
</clipPath>
<g clip-path="url(#cp9)">
<path transform="matrix(1,0,0,-1,61.0043,55.968904)" d="M 0 0 C -.808 7.013 -6.418 10.924 -13.092 10.924 C -22.485 10.924 -28.011 3.91 -28.011 -5.101 C -28.011 -13.857 -22.485 -20.87 -13.092 -20.87 C -5.653 -20.87 -.425 -16.024 .255 -8.458 L -6.206 -8.458 C -6.716 -12.454 -9.011 -15.259 -13.092 -15.259 C -19.085 -15.259 -21.338 -10.159 -21.338 -5.101 C -21.338 .213 -19.085 5.313 -13.092 5.313 C -9.776 5.313 -6.886 3.018 -6.461 0 Z M 4.442 -20.147 L 11.115 -20.147 L 11.115 -8.288 L 17.788 -8.288 C 21.146 -8.288 22.379 -9.691 22.846 -12.879 C 23.186 -15.302 23.101 -18.235 23.909 -20.147 L 30.582 -20.147 C 29.392 -18.447 29.435 -14.877 29.307 -12.964 C 29.095 -9.904 28.159 -6.716 24.887 -5.866 L 24.887 -5.781 C 28.244 -4.421 29.69 -1.743 29.69 1.828 C 29.69 6.418 26.247 10.201 20.806 10.201 L 4.442 10.201 Z M 11.115 5.016 L 18.426 5.016 C 21.401 5.016 23.016 3.74 23.016 .808 C 23.016 -2.253 21.401 -3.528 18.426 -3.528 L 11.115 -3.528 Z " fill="#ffffff"/>
</g>
</g>
</g>
</svg>
