<?xml version="1.0" encoding="UTF-8"?>
<svg width="44px" height="44px" viewBox="0 0 44 44" version="1.1" xmlns="http://www.w3.org/2000/svg" xmlns:xlink="http://www.w3.org/1999/xlink">
    <!-- Generator: Sketch 40.3 (33839) - http://www.bohemiancoding.com/sketch -->
    <title>category-sm_dd</title>
    <desc>Created with Sketch.</desc>
    <defs></defs>
    <g id="Page-1" stroke="none" stroke-width="1" fill="none" fill-rule="evenodd">
        <g id="category-sm_dd">
            <path d="M43.9997223,21.9995835 L43.9997223,0 L21.6255467,0 L21.6255467,0.00916336924 C9.64998264,0.209369103 0,9.97363323 0,22.0006942 C0,34.1513218 9.85046859,44 21.9987504,44 C34.1114891,44 43.9366886,34.2113002 43.9972232,22.112876 L43.9997223,22.112876 L43.9997223,22.0212424 C43.9997223,22.0145781 44,22.0076361 44,22.0006942 C44,22.0006942 43.9997223,21.9998612 43.9997223,21.9995835" id="Fill-197-Copy-8" fill="#666666"></path>
            <g id="Group-16" transform="translate(14.000000, 17.000000)" fill="#FFFFFF">
                <path d="M2.45353333,7.28125 L4.2256,7.28125 C5.37826667,7.28125 6.479,6.5825 6.479,4.60875 C6.479,2.80875 5.84693333,1.66 3.87093333,1.66 L2.45353333,1.66 L2.45353333,7.28125 L2.45353333,7.28125 Z M0.466133333,0.01125 L4.36493333,0.01125 C6.707,0.01125 8.46766667,1.46 8.46766667,4.42125 C8.46766667,7.0075 7.125,8.93125 4.36493333,8.93125 L0.466133333,8.93125 L0.466133333,0.01125 L0.466133333,0.01125 Z" id="Fill-76"></path>
                <path d="M11.8522,7.28125 L13.6242667,7.28125 C14.7769333,7.28125 15.8776667,6.5825 15.8776667,4.60875 C15.8776667,2.80875 15.2456,1.66 13.2696,1.66 L11.8522,1.66 L11.8522,7.28125 L11.8522,7.28125 Z M9.8648,0.01125 L13.7636,0.01125 C16.1056667,0.01125 17.8650667,1.46 17.8650667,4.42125 C17.8650667,7.0075 16.5236667,8.93125 13.7636,8.93125 L9.8648,8.93125 L9.8648,0.01125 L9.8648,0.01125 Z" id="Fill-77"></path>
            </g>
            <polyline id="Fill-233-Copy-8" fill="#FFFFFF" points="33 16 38.4215756 21.4992653 33 27 35.5699077 27 41 21.4992653 35.5649397 16 33 16"></polyline>
            <polyline id="Fill-234-Copy-8" fill="#FFFFFF" points="11 16 5.57865318 21.4992653 11 27 8.43057404 27 3 21.4992653 8.43554254 16 11 16"></polyline>
        </g>
    </g>
</svg>