<?xml version="1.0" encoding="UTF-8" standalone="no"?>
<!DOCTYPE svg PUBLIC "-//W3C//DTD SVG 1.1//EN" "http://www.w3.org/Graphics/SVG/1.1/DTD/svg11.dtd">
<svg xmlns="http://www.w3.org/2000/svg" xmlns:xlink="http://www.w3.org/1999/xlink" version="1.1" width="121.89pt" height="121.89pt" viewBox="0 0 121.89 121.89">
<g enable-background="new">
<g id="Layer-1" data-name="Artifact">
<clipPath id="cp2">
<path transform="matrix(1,0,0,-1,0,121.89)" d="M 0 0 L 121.89 0 L 121.89 121.89 L 0 121.89 Z "/>
</clipPath>
<g clip-path="url(#cp2)">
<path transform="matrix(1,0,0,-1,121.8882,60.9436)" d="M 0 0 L 0 60.944 L -61.98 60.944 L -61.98 60.917 C -95.156 60.364 -121.888 33.314 -121.888 -.004 C -121.888 -33.663 -94.6 -60.947 -60.947 -60.947 C -27.393 -60.947 -.175 -33.83 -.007 -.314 L 0 -.314 L 0 -.06 C 0 -.042 .002 -.023 .002 -.004 C .002 -.004 0 -.002 0 0 " fill="#ee2c24"/>
</g>
<path transform="matrix(1,0,0,-1,95.1091,45.6942)" d="M 0 0 L 15.5 -15.253 L 0 -30.502 L 7.331 -30.502 L 22.872 -15.253 L 7.348 0 Z " fill="#ffffff"/>
</g>
<path transform="matrix(1,0,0,-1,26.7806,76.1965)" d="M 0 0 L -15.5 15.253 L 0 30.502 L -7.331 30.502 L -22.872 15.253 L -7.348 0 Z " fill="#ffffff"/>
<g id="Layer-1" data-name="Artifact">
<clipPath id="cp3">
<path transform="matrix(1,0,0,-1,0,121.89)" d="M 0 0 L 121.89 0 L 121.89 121.89 L 0 121.89 Z "/>
</clipPath>
<g clip-path="url(#cp3)">
<path transform="matrix(1,0,0,-1,37.4309,76.1163)" d="M 0 0 L 21.465 0 L 21.465 5.611 L 6.673 5.611 L 6.673 30.349 L 0 30.349 Z M 50.78 20.147 C 49.973 27.161 44.362 31.071 37.689 31.071 C 28.295 31.071 22.769 24.058 22.769 15.047 C 22.769 6.291 28.295 -.723 37.689 -.723 C 45.127 -.723 50.355 4.123 51.035 11.689 L 44.575 11.689 C 44.064 7.693 41.769 4.888 37.689 4.888 C 31.695 4.888 29.443 9.989 29.443 15.047 C 29.443 20.36 31.695 25.461 37.689 25.461 C 41.004 25.461 43.894 23.165 44.319 20.147 Z " fill="#ffffff"/>
</g>
</g>
</g>
</svg>
