<?xml version="1.0" encoding="UTF-8" standalone="no"?>
<!DOCTYPE svg PUBLIC "-//W3C//DTD SVG 1.1//EN" "http://www.w3.org/Graphics/SVG/1.1/DTD/svg11.dtd">
<svg xmlns="http://www.w3.org/2000/svg" xmlns:xlink="http://www.w3.org/1999/xlink" version="1.1" width="121.89pt" height="121.89pt" viewBox="0 0 121.89 121.89">
<g enable-background="new">
<g id="Layer-1" data-name="Artifact">
<clipPath id="cp4">
<path transform="matrix(1,0,0,-1,0,121.89)" d="M 0 0 L 121.89 0 L 121.89 121.89 L 0 121.89 Z "/>
</clipPath>
<g clip-path="url(#cp4)">
<path transform="matrix(1,0,0,-1,121.8882,60.9436)" d="M 0 0 L 0 60.944 L -61.98 60.944 L -61.98 60.917 C -95.156 60.364 -121.888 33.314 -121.888 -.004 C -121.888 -33.663 -94.6 -60.947 -60.947 -60.947 C -27.393 -60.947 -.175 -33.83 -.007 -.314 L 0 -.314 L 0 -.06 C 0 -.042 .002 -.023 .002 -.004 C .002 -.004 0 -.002 0 0 " fill="#ee2c24"/>
</g>
<path transform="matrix(1,0,0,-1,26.7806,76.1965)" d="M 0 0 L -15.5 15.253 L 0 30.502 L -7.331 30.502 L -22.872 15.253 L -7.348 0 Z " fill="#ffffff"/>
<path transform="matrix(1,0,0,-1,95.1091,45.6942)" d="M 0 0 L 15.5 -15.253 L 0 -30.502 L 7.331 -30.502 L 22.872 -15.253 L 7.348 0 Z " fill="#ffffff"/>
</g>
<g id="Layer-1" data-name="Artifact">
<path transform="matrix(1,0,0,-1,36.7592,76.1163)" d="M 0 0 L 6.248 0 L 6.248 20.317 L 6.333 20.317 L 18.957 0 L 25.631 0 L 25.631 30.349 L 19.382 30.349 L 19.382 9.989 L 19.297 9.989 L 6.631 30.349 L 0 30.349 Z M 37.672 0 L 44.345 0 L 44.345 24.738 L 53.442 24.738 L 53.442 30.349 L 28.576 30.349 L 28.576 24.738 L 37.672 24.738 Z " fill="#ffffff"/>
</g>
</g>
</svg>
