<?xml version="1.0" encoding="UTF-8" standalone="no"?>
<!DOCTYPE svg PUBLIC "-//W3C//DTD SVG 1.1//EN" "http://www.w3.org/Graphics/SVG/1.1/DTD/svg11.dtd">
<svg xmlns="http://www.w3.org/2000/svg" xmlns:xlink="http://www.w3.org/1999/xlink" version="1.1" width="121.89pt" height="121.89pt" viewBox="0 0 121.89 121.89">
<g enable-background="new">
<g id="Layer-1" data-name="Artifact">
<clipPath id="cp5">
<path transform="matrix(1,0,0,-1,0,121.89)" d="M 0 0 L 121.89 0 L 121.89 121.89 L 0 121.89 Z "/>
</clipPath>
<g clip-path="url(#cp5)">
<path transform="matrix(1,0,0,-1,121.8882,60.9436)" d="M 0 0 L 0 60.944 L -61.98 60.944 L -61.98 60.917 C -95.156 60.364 -121.888 33.314 -121.888 -.004 C -121.888 -33.663 -94.6 -60.947 -60.947 -60.947 C -27.393 -60.947 -.175 -33.83 -.007 -.314 L 0 -.314 L 0 -.06 C 0 -.042 .002 -.023 .002 -.004 C .002 -.004 0 -.002 0 0 " fill="#ee2c24"/>
</g>
<path transform="matrix(1,0,0,-1,26.7806,76.1965)" d="M 0 0 L -15.5 15.253 L 0 30.502 L -7.331 30.502 L -22.872 15.253 L -7.348 0 Z " fill="#ffffff"/>
<path transform="matrix(1,0,0,-1,95.1091,45.6942)" d="M 0 0 L 15.5 -15.253 L 0 -30.502 L 7.331 -30.502 L 22.872 -15.253 L 7.348 0 Z " fill="#ffffff"/>
</g>
<g id="Layer-1" data-name="Artifact">
<clipPath id="cp6">
<path transform="matrix(1,0,0,-1,0,121.89)" d="M 0 0 L 121.89 0 L 121.89 121.89 L 0 121.89 Z "/>
</clipPath>
<g clip-path="url(#cp6)">
<path transform="matrix(1,0,0,-1,60.2731,45.7677)" d="M 0 0 L -6.886 0 L -13.729 -21.338 L -13.814 -21.338 L -20.572 0 L -27.458 0 L -17.597 -30.349 L -10.074 -30.349 Z M 28.346 0 L 21.673 0 L 21.673 -18.872 C 21.673 -23.378 20.143 -25.461 15.382 -25.461 C 9.984 -25.461 9.134 -22.188 9.134 -18.872 L 9.134 0 L 2.461 0 L 2.461 -18.872 C 2.461 -27.118 7.221 -31.071 15.382 -31.071 C 23.501 -31.071 28.346 -27.076 28.346 -18.872 Z " fill="#ffffff"/>
</g>
</g>
</g>
</svg>
